<svg width="417" height="109" viewBox="0 0 417 109" fill="none" xmlns="http://www.w3.org/2000/svg">
<path d="M0.800001 106V0.249994H23.9V44.05H39.8L35.75 46.6L65.45 0.249994H90.95L56.9 51.1L47.75 44.8C54.85 46 60.7 48.45 65.3 52.15C70 55.85 74.05 61.1 77.45 67.9L96.5 106H71.3L57.05 76C54.85 71.2 52.15 67.85 48.95 65.95C45.75 63.95 41.65 62.95 36.65 62.95H23.9V106H0.800001ZM109.844 108.7L98.2941 91.9C102.494 89.5 106.144 86.75 109.244 83.65C112.444 80.45 115.044 76.6 117.044 72.1C119.044 67.6 120.544 62.15 121.544 55.75C122.544 49.35 123.044 41.7 123.044 32.8V0.249994H202.544V106H179.294V19.15H144.494V38.5C144.494 48.1 143.694 56.7 142.094 64.3C140.594 71.8 138.344 78.4 135.344 84.1C132.444 89.8 128.844 94.7 124.544 98.8C120.244 102.8 115.344 106.1 109.844 108.7ZM239.492 106L258.392 70.15L258.692 76.9L210.092 0.249994H234.842L270.092 56.8H265.742L295.142 0.249994H319.292L263.792 106H239.492ZM327.46 106V0.249994H405.46V18.1H349.66V43H378.91C390.61 43 399.76 45.7 406.36 51.1C412.96 56.4 416.26 64.15 416.26 74.35C416.26 84.55 412.96 92.4 406.36 97.9C399.76 103.3 390.61 106 378.91 106H327.46ZM349.66 88.3H375.91C382.21 88.3 386.81 87.15 389.71 84.85C392.61 82.55 394.06 79.05 394.06 74.35C394.06 69.75 392.61 66.35 389.71 64.15C386.81 61.85 382.21 60.7 375.91 60.7H349.66V88.3Z" fill="url(#paint0_linear_288_9)"/>
<defs>
<linearGradient id="paint0_linear_288_9" x1="206" y1="-45" x2="206" y2="143" gradientUnits="userSpaceOnUse">
<stop stop-color="#73FCFF"/>
<stop offset="1" stop-color="#459799"/>
</linearGradient>
</defs>
</svg>
